<?xml version="1.0" encoding="utf-8"?>
<!-- Generator: Adobe Illustrator 16.0.4, SVG Export Plug-In . SVG Version: 6.00 Build 0)  -->
<!DOCTYPE svg PUBLIC "-//W3C//DTD SVG 1.1//EN" "http://www.w3.org/Graphics/SVG/1.1/DTD/svg11.dtd">
<svg version="1.1" id="Layer_1" xmlns="http://www.w3.org/2000/svg" xmlns:xlink="http://www.w3.org/1999/xlink" x="0px" y="0px"
	 width="186.702px" height="52.147px" viewBox="540.251 738.902 186.702 52.147"
	 enable-background="new 540.251 738.902 186.702 52.147" xml:space="preserve">
<g>
	<path fill="#EEEEEE" d="M540.251,751.882v26.188l23.04,12.979l23.04-12.979v-26.188l-23.04-12.979L540.251,751.882z
		 M562.293,781.604l-13.363-7.373v-16.051l13.363,7.68V781.604z M577.5,774.23l-13.209,7.373v-15.744l13.209-7.68
		C577.5,758.025,577.5,774.23,577.5,774.23z M577.5,755.875l-14.285,8.448l-14.362-8.448l14.362-7.757L577.5,755.875z"/>
	<path fill="#EEEEEE" d="M602.383,754.416h-7.296v21.734h4.915v-8.064h2.381c4.224,0,7.373-2.458,7.373-6.989
		S606.606,754.416,602.383,754.416z M601.384,764.093h-1.382v-5.837h1.382c1.997,0,3.84,0.691,3.84,2.842
		C605.071,763.479,603.305,764.093,601.384,764.093z"/>
	<rect x="611.368" y="754.416" fill="#EEEEEE" width="4.915" height="21.734"/>
	<polygon fill="#EEEEEE" points="637.864,754.416 631.72,754.416 627.65,760.33 623.733,754.416 617.819,754.416 624.578,764.477 
		617.205,776.074 623.426,776.074 627.65,768.701 631.951,776.074 638.402,776.074 630.722,764.477 	"/>
	<polygon fill="#EEEEEE" points="639.17,776.074 651.611,776.074 651.611,771.773 644.085,771.773 644.085,767.395 651.305,767.395 
		651.305,763.094 644.085,763.094 644.085,758.717 651.611,758.717 651.611,754.416 639.17,754.416 	"/>
	<path fill="#EEEEEE" d="M670.197,754.416l-6.989,17.434h-4.915v-17.434h-4.915v21.734h8.064h4.301h0.998l1.612-4.301h8.295
		l1.613,4.301h5.299l-8.756-21.734H670.197L670.197,754.416z M670.12,767.395l2.458-6.297h0.076l2.458,6.297H670.12z"/>
	<polygon fill="#EEEEEE" points="679.413,758.717 684.559,758.717 684.559,776.074 689.551,776.074 689.551,758.717 
		694.696,758.717 694.696,754.416 679.413,754.416 	"/>
	<polygon fill="#EEEEEE" points="696.386,776.074 708.751,776.074 708.751,771.773 701.301,771.773 701.301,767.395 
		708.521,767.395 708.521,763.094 701.301,763.094 701.301,758.717 708.751,758.717 708.751,754.416 696.386,754.416 	"/>
	<path fill="#EEEEEE" d="M715.97,754.416h-5.452v21.734h5.529c5.99,0,10.905-4.531,10.905-10.906
		C727.029,758.947,721.961,754.416,715.97,754.416z M716.277,771.773h-0.768v-12.902h0.768c3.609,0,6.221,2.841,6.221,6.528
		C722.345,768.854,719.887,771.773,716.277,771.773z"/>
</g>
</svg>
