<?xml version="1.0" encoding="utf-8"?>
<!-- Generator: Adobe Illustrator 16.0.4, SVG Export Plug-In . SVG Version: 6.00 Build 0)  -->
<!DOCTYPE svg PUBLIC "-//W3C//DTD SVG 1.1//EN" "http://www.w3.org/Graphics/SVG/1.1/DTD/svg11.dtd">
<svg version="1.1" id="Layer_1" xmlns="http://www.w3.org/2000/svg" xmlns:xlink="http://www.w3.org/1999/xlink" x="0px" y="0px"
	 width="149.361px" height="41.718px" viewBox="558.922 744.117 149.361 41.718"
	 enable-background="new 558.922 744.117 149.361 41.718" xml:space="preserve">
<g>
	<path fill="#EEEEEE" d="M558.922,754.501v20.951l18.432,10.384l18.432-10.384v-20.951l-18.432-10.384L558.922,754.501z
		 M576.555,778.278l-10.691-5.898v-12.841l10.691,6.145V778.278z M588.72,772.38l-10.567,5.898v-12.595l10.567-6.145
		C588.72,759.416,588.72,772.38,588.72,772.38z M588.72,757.695l-11.428,6.759l-11.489-6.759l11.489-6.206L588.72,757.695z"/>
	<path fill="#EEEEEE" d="M608.627,756.528h-5.837v17.387h3.932v-6.451h1.905c3.379,0,5.898-1.966,5.898-5.591
		S612.006,756.528,608.627,756.528z M607.828,764.27h-1.106V759.6h1.106c1.597,0,3.072,0.553,3.072,2.273
		C610.777,763.778,609.364,764.27,607.828,764.27z"/>
	<rect x="615.815" y="756.528" fill="#EEEEEE" width="3.932" height="17.387"/>
	<polygon fill="#EEEEEE" points="637.012,756.528 632.097,756.528 628.84,761.259 625.708,756.528 620.976,756.528 626.383,764.577 
		620.485,773.854 625.461,773.854 628.84,767.956 632.281,773.854 637.442,773.854 631.298,764.577 	"/>
	<polygon fill="#EEEEEE" points="638.057,773.854 648.01,773.854 648.01,770.414 641.988,770.414 641.988,766.912 647.764,766.912 
		647.764,763.471 641.988,763.471 641.988,759.969 648.01,759.969 648.01,756.528 638.057,756.528 	"/>
	<path fill="#EEEEEE" d="M662.879,756.528l-5.592,13.947h-3.932v-13.947h-3.933v17.387h6.452h3.439h0.799l1.29-3.44h6.636
		l1.291,3.44h4.238l-7.004-17.387H662.879L662.879,756.528z M662.816,766.912l1.967-5.038h0.061l1.967,5.038H662.816z"/>
	<polygon fill="#EEEEEE" points="670.251,759.969 674.367,759.969 674.367,773.854 678.361,773.854 678.361,759.969 
		682.478,759.969 682.478,756.528 670.251,756.528 	"/>
	<polygon fill="#EEEEEE" points="683.829,773.854 693.721,773.854 693.721,770.414 687.762,770.414 687.762,766.912 
		693.537,766.912 693.537,763.471 687.762,763.471 687.762,759.969 693.721,759.969 693.721,756.528 683.829,756.528 	"/>
	<path fill="#EEEEEE" d="M699.496,756.528h-4.361v17.387h4.424c4.791,0,8.724-3.625,8.724-8.725
		C708.344,760.153,704.289,756.528,699.496,756.528z M699.742,770.414h-0.613v-10.322h0.613c2.888,0,4.977,2.273,4.977,5.222
		C704.596,768.079,702.63,770.414,699.742,770.414z"/>
</g>
</svg>
