<?xml version="1.0" encoding="utf-8"?>
<!-- Generator: Adobe Illustrator 18.1.1, SVG Export Plug-In . SVG Version: 6.00 Build 0)  -->
<svg version="1.1" id="Layer_1" xmlns="http://www.w3.org/2000/svg" xmlns:xlink="http://www.w3.org/1999/xlink" x="0px" y="0px"
	 viewBox="-48 567 660 225" enable-background="new -48 567 660 225" xml:space="preserve">
<g>
	<path fill="#2CA5CA" d="M-24,636.6v85.7l75.4,42.7l75.4-42.7v-85.7l-75.5-42.6L-24,636.6z M48.4,734.1L4.6,709.7V657l43.9,25.2
		L48.4,734.1z M98.4,709.7L55,734.1l0.1-51.8l43.3-25.2v52.6H98.4z M98.4,649.8l-46.8,27.7L4.5,649.8l47.2-25.3L98.4,649.8z"/>
	<path fill="#2CA5CA" d="M179.5,644.9h-24v71.2h16.2v-26.4h7.7c13.9,0,24.4-8.2,24.4-22.9C203.9,652.1,193.4,644.9,179.5,644.9z
		 M176.4,676.7h-4.6v-19h4.6c6.4,0,12.5,2.2,12.5,9.5C188.8,674.5,182.8,676.7,176.4,676.7z"/>
	<rect x="209.3" y="644.9" fill="#2CA5CA" width="16.2" height="71.2"/>
	<polygon fill="#2CA5CA" points="296,644.9 275.8,644.9 262.7,664.3 249.5,644.9 230.2,644.9 252.6,677.8 228.4,716.1 248.6,716.1 
		262.7,691.8 276.8,716.1 297.8,716.1 272.7,677.8 	"/>
	<polygon fill="#2CA5CA" points="300.3,716.1 341.1,716.1 341.1,701.9 316.5,701.9 316.5,687.5 340.1,687.5 340.1,673.3 
		316.5,673.3 316.5,659.1 341.1,659.1 341.1,644.9 300.3,644.9 	"/>
	<path fill="#2CA5CA" d="M402,644.9l-23.1,57h-16v-57h-16.2v71.2h26.5h14.3h3.1l5.3-14.3h27.1l5.3,14.3h17.4l-28.7-71.2
		C417,644.9,402,644.9,402,644.9z M401.5,687.6l7.9-20.8h0.1l7.9,20.8H401.5z"/>
	<polygon fill="#2CA5CA" points="432.1,659.1 449.2,659.1 449.2,716.1 465.4,716.1 465.4,659.1 482.3,659.1 482.3,644.9 
		432.1,644.9 	"/>
	<polygon fill="#2CA5CA" points="487.9,716.1 528.6,716.1 528.6,701.9 504.1,701.9 504.1,687.5 527.5,687.5 527.5,673.3 
		504.1,673.3 504.1,659.1 528.6,659.1 528.6,644.9 487.9,644.9 	"/>
	<path fill="#2CA5CA" d="M552.1,644.9h-17.9v71.2h17.9c19.6,0,35.9-14.9,35.9-35.7C588,659.7,571.6,644.9,552.1,644.9z M552.9,701.5
		h-2.5v-42.1h2.5c12.1,0,20.3,9.2,20.3,21.1C573.1,692.4,564.9,701.5,552.9,701.5z"/>
</g>
</svg>
