<?xml version="1.0" encoding="UTF-8"?><svg xmlns="http://www.w3.org/2000/svg" xmlns:xlink="http://www.w3.org/1999/xlink" fill-opacity="1" color-rendering="auto" color-interpolation="auto" text-rendering="auto" stroke="black" stroke-linecap="square" width="727" stroke-miterlimit="10" shape-rendering="auto" stroke-opacity="1" fill="black" stroke-dasharray="none" font-weight="normal" stroke-width="1" height="476" font-family="'Dialog'" font-style="normal" stroke-linejoin="miter" font-size="12" stroke-dashoffset="0" image-rendering="auto">
  <!--Generated by ySVG 2.5-->
  <defs id="genericDefs"/>
  <g>
    <defs id="defs1">
      <clipPath clipPathUnits="userSpaceOnUse" id="clipPath1">
        <path d="M0 0 L727 0 L727 476 L0 476 L0 0 Z"/>
      </clipPath>
      <clipPath clipPathUnits="userSpaceOnUse" id="clipPath2">
        <path d="M35 66 L762 66 L762 542 L35 542 L35 66 Z"/>
      </clipPath>
      <clipPath clipPathUnits="userSpaceOnUse" id="clipPath3">
        <path d="M35 64 L762 64 L762 540 L35 540 L35 64 Z"/>
      </clipPath>
    </defs>
    <g fill="white" text-rendering="geometricPrecision" shape-rendering="geometricPrecision" transform="translate(-35,-66)" stroke="white">
      <rect x="35" width="727" height="476" y="66" clip-path="url(#clipPath2)" stroke="none"/>
    </g>
    <g stroke-linecap="butt" transform="matrix(1,0,0,1,-35,-66)" fill="rgb(253,171,61)" text-rendering="geometricPrecision" shape-rendering="geometricPrecision" stroke="rgb(253,171,61)" stroke-width="4" stroke-miterlimit="1.45">
      <rect fill="none" x="50.73" width="695.54" height="401" y="125.04" clip-path="url(#clipPath2)"/>
    </g>
    <g fill="white" text-rendering="geometricPrecision" shape-rendering="geometricPrecision" transform="matrix(1,0,0,1,-35,-66)" stroke="white">
      <rect x="86" y="146.68" clip-path="url(#clipPath2)" width="89.56" rx="4" ry="4" height="126.64" stroke="none"/>
    </g>
    <g stroke-linecap="butt" font-size="15" transform="matrix(1,0,0,1,-35,-66)" fill="rgb(62,58,55)" text-rendering="geometricPrecision" font-family="'Open Sans'" shape-rendering="geometricPrecision" stroke="rgb(62,58,55)" stroke-miterlimit="1.45">
      <text x="109.2358" xml:space="preserve" y="168.7127" clip-path="url(#clipPath2)" stroke="none">User's</text>
      <text x="95.426" xml:space="preserve" y="189.14" clip-path="url(#clipPath2)" stroke="none">Computer</text>
      <rect x="86" y="146.68" clip-path="url(#clipPath2)" fill="none" width="89.56" rx="4" ry="4" height="126.64"/>
    </g>
    <g fill="white" text-rendering="geometricPrecision" shape-rendering="geometricPrecision" transform="matrix(1,0,0,1,-35,-66)" stroke="white">
      <rect x="284" y="146.68" clip-path="url(#clipPath2)" width="213.25" rx="4" ry="4" height="215.9399" stroke="none"/>
    </g>
    <g stroke-linecap="butt" font-size="15" transform="matrix(1,0,0,1,-35,-66)" fill="rgb(62,58,55)" text-rendering="geometricPrecision" font-family="'Open Sans'" shape-rendering="geometricPrecision" stroke="rgb(62,58,55)" stroke-miterlimit="1.45">
      <text x="318.8074" xml:space="preserve" y="168.7127" clip-path="url(#clipPath2)" stroke="none">Pixelated Dispatcher</text>
      <rect x="284" y="146.68" clip-path="url(#clipPath2)" fill="none" width="213.25" rx="4" ry="4" height="215.9399"/>
    </g>
    <g fill="rgb(179,166,145)" text-rendering="geometricPrecision" shape-rendering="geometricPrecision" transform="matrix(1,0,0,1,-35,-66) translate(0,2)" stroke="rgb(179,166,145)">
      <rect x="324.72" y="212.5" clip-path="url(#clipPath3)" width="70.56" rx="4" ry="4" height="55" stroke="none"/>
    </g>
    <g fill="white" text-rendering="geometricPrecision" shape-rendering="geometricPrecision" transform="matrix(1,0,0,1,-35,-66)" stroke="white">
      <rect x="324.72" y="212.5" clip-path="url(#clipPath2)" width="70.56" rx="4" ry="4" height="55" stroke="none"/>
    </g>
    <g stroke-linecap="butt" transform="matrix(1,0,0,1,-35,-66)" fill="rgb(62,58,55)" text-rendering="geometricPrecision" font-family="'Open Sans'" shape-rendering="geometricPrecision" stroke="rgb(62,58,55)" stroke-miterlimit="1.45">
      <text x="329.7598" xml:space="preserve" y="236.4844" clip-path="url(#clipPath2)" stroke="none">Dispatcher</text>
      <text x="344.1475" xml:space="preserve" y="252.8262" clip-path="url(#clipPath2)" stroke="none">Proxy</text>
      <rect x="324.72" y="212.5" clip-path="url(#clipPath2)" fill="none" width="70.56" rx="4" ry="4" height="55"/>
    </g>
    <g fill="rgb(179,166,145)" text-rendering="geometricPrecision" shape-rendering="geometricPrecision" transform="matrix(1,0,0,1,-35,-66) translate(0,2)" stroke="rgb(179,166,145)">
      <rect x="414.72" y="290.5" clip-path="url(#clipPath3)" width="70.56" rx="4" ry="4" height="55" stroke="none"/>
    </g>
    <g fill="white" text-rendering="geometricPrecision" shape-rendering="geometricPrecision" transform="matrix(1,0,0,1,-35,-66)" stroke="white">
      <rect x="414.72" y="290.5" clip-path="url(#clipPath2)" width="70.56" rx="4" ry="4" height="55" stroke="none"/>
    </g>
    <g stroke-linecap="butt" transform="matrix(1,0,0,1,-35,-66)" fill="rgb(62,58,55)" text-rendering="geometricPrecision" font-family="'Open Sans'" shape-rendering="geometricPrecision" stroke="rgb(62,58,55)" stroke-miterlimit="1.45">
      <text x="419.7598" xml:space="preserve" y="314.4844" clip-path="url(#clipPath2)" stroke="none">Dispatcher</text>
      <text x="425.124" xml:space="preserve" y="330.8262" clip-path="url(#clipPath2)" stroke="none">Manager</text>
      <rect x="414.72" y="290.5" clip-path="url(#clipPath2)" fill="none" width="70.56" rx="4" ry="4" height="55"/>
    </g>
    <g fill="rgb(179,166,145)" text-rendering="geometricPrecision" shape-rendering="geometricPrecision" transform="matrix(1,0,0,1,-35,-66) translate(0,2)" stroke="rgb(179,166,145)">
      <rect x="105" y="217.8" clip-path="url(#clipPath3)" width="51.56" rx="4" ry="4" height="44.4" stroke="none"/>
    </g>
    <g fill="white" text-rendering="geometricPrecision" shape-rendering="geometricPrecision" transform="matrix(1,0,0,1,-35,-66)" stroke="white">
      <rect x="105" y="217.8" clip-path="url(#clipPath2)" width="51.56" rx="4" ry="4" height="44.4" stroke="none"/>
    </g>
    <g stroke-linecap="butt" transform="matrix(1,0,0,1,-35,-66)" fill="rgb(62,58,55)" text-rendering="geometricPrecision" font-family="'Open Sans'" shape-rendering="geometricPrecision" stroke="rgb(62,58,55)" stroke-miterlimit="1.45">
      <text x="107.4743" xml:space="preserve" y="244.6553" clip-path="url(#clipPath2)" stroke="none">Browser</text>
      <rect x="105" y="217.8" clip-path="url(#clipPath2)" fill="none" width="51.56" rx="4" ry="4" height="44.4"/>
    </g>
    <g fill="rgb(179,166,145)" text-rendering="geometricPrecision" shape-rendering="geometricPrecision" transform="matrix(1,0,0,1,-35,-66) translate(0,2)" stroke="rgb(179,166,145)">
      <rect x="552.52" y="298.04" clip-path="url(#clipPath3)" width="81.24" rx="4" ry="4" height="55" stroke="none"/>
    </g>
    <g fill="white" text-rendering="geometricPrecision" shape-rendering="geometricPrecision" transform="matrix(1,0,0,1,-35,-66)" stroke="white">
      <rect x="552.52" y="298.04" clip-path="url(#clipPath2)" width="81.24" rx="4" ry="4" height="55" stroke="none"/>
    </g>
    <g stroke-linecap="butt" transform="matrix(1,0,0,1,-35,-66)" fill="rgb(62,58,55)" text-rendering="geometricPrecision" font-family="'Open Sans'" shape-rendering="geometricPrecision" stroke="rgb(62,58,55)" stroke-miterlimit="1.45">
      <text x="567.4847" xml:space="preserve" y="322.0244" clip-path="url(#clipPath2)" stroke="none">Pixelated</text>
      <text x="561.9125" xml:space="preserve" y="338.3662" clip-path="url(#clipPath2)" stroke="none">User-Agent</text>
      <rect x="552.52" y="298.04" clip-path="url(#clipPath2)" fill="none" width="81.24" rx="4" ry="4" height="55"/>
    </g>
    <g fill="rgb(179,166,145)" text-rendering="geometricPrecision" shape-rendering="geometricPrecision" transform="matrix(1,0,0,1,-35,-66) translate(0,2)" stroke="rgb(179,166,145)">
      <rect x="544.88" y="253.4599" clip-path="url(#clipPath3)" width="81.24" rx="4" ry="4" height="55" stroke="none"/>
    </g>
    <g fill="white" text-rendering="geometricPrecision" shape-rendering="geometricPrecision" transform="matrix(1,0,0,1,-35,-66)" stroke="white">
      <rect x="544.88" y="253.4599" clip-path="url(#clipPath2)" width="81.24" rx="4" ry="4" height="55" stroke="none"/>
    </g>
    <g stroke-linecap="butt" transform="matrix(1,0,0,1,-35,-66)" fill="rgb(62,58,55)" text-rendering="geometricPrecision" font-family="'Open Sans'" shape-rendering="geometricPrecision" stroke="rgb(62,58,55)" stroke-miterlimit="1.45">
      <text x="559.8447" xml:space="preserve" y="277.4442" clip-path="url(#clipPath2)" stroke="none">Pixelated</text>
      <text x="554.2725" xml:space="preserve" y="293.786" clip-path="url(#clipPath2)" stroke="none">User-Agent</text>
      <rect x="544.88" y="253.4599" clip-path="url(#clipPath2)" fill="none" width="81.24" rx="4" ry="4" height="55"/>
    </g>
    <g fill="rgb(179,166,145)" text-rendering="geometricPrecision" shape-rendering="geometricPrecision" transform="matrix(1,0,0,1,-35,-66) translate(0,2)" stroke="rgb(179,166,145)">
      <rect x="532.08" y="204.12" clip-path="url(#clipPath3)" width="81.24" rx="4" ry="4" height="55" stroke="none"/>
    </g>
    <g fill="white" text-rendering="geometricPrecision" shape-rendering="geometricPrecision" transform="matrix(1,0,0,1,-35,-66)" stroke="white">
      <rect x="532.08" y="204.12" clip-path="url(#clipPath2)" width="81.24" rx="4" ry="4" height="55" stroke="none"/>
    </g>
    <g stroke-linecap="butt" transform="matrix(1,0,0,1,-35,-66)" fill="rgb(62,58,55)" text-rendering="geometricPrecision" font-family="'Open Sans'" shape-rendering="geometricPrecision" stroke="rgb(62,58,55)" stroke-miterlimit="1.45">
      <text x="547.0447" xml:space="preserve" y="228.1044" clip-path="url(#clipPath2)" stroke="none">Pixelated</text>
      <text x="541.4725" xml:space="preserve" y="244.4462" clip-path="url(#clipPath2)" stroke="none">User-Agent</text>
      <rect x="532.08" y="204.12" clip-path="url(#clipPath2)" fill="none" width="81.24" rx="4" ry="4" height="55"/>
    </g>
    <g fill="rgb(179,166,145)" text-rendering="geometricPrecision" shape-rendering="geometricPrecision" transform="matrix(1,0,0,1,-35,-66) translate(0,2)" stroke="rgb(179,166,145)">
      <rect x="284" y="410.04" clip-path="url(#clipPath3)" width="425.56" rx="4" ry="4" height="55" stroke="none"/>
    </g>
    <g fill="white" text-rendering="geometricPrecision" shape-rendering="geometricPrecision" transform="matrix(1,0,0,1,-35,-66)" stroke="white">
      <rect x="284" y="410.04" clip-path="url(#clipPath2)" width="425.56" rx="4" ry="4" height="55" stroke="none"/>
    </g>
    <g stroke-linecap="butt" font-size="15" transform="matrix(1,0,0,1,-35,-66)" fill="rgb(62,58,55)" text-rendering="geometricPrecision" font-family="'Open Sans'" shape-rendering="geometricPrecision" stroke="rgb(62,58,55)" stroke-miterlimit="1.45">
      <text x="447.1657" xml:space="preserve" y="443.3591" clip-path="url(#clipPath2)" stroke="none">LEAP Platform</text>
      <rect x="284" y="410.04" clip-path="url(#clipPath2)" fill="none" width="425.56" rx="4" ry="4" height="55"/>
    </g>
    <g fill="rgb(255,121,2)" text-rendering="geometricPrecision" shape-rendering="geometricPrecision" transform="matrix(1,0,0,1,-35,-66)" stroke="rgb(255,121,2)">
      <rect x="50.73" width="695.54" height="38" y="81.32" clip-path="url(#clipPath2)" stroke="none"/>
    </g>
    <g stroke-linecap="butt" font-size="20" transform="matrix(1,0,0,1,-35,-66)" fill="white" text-rendering="geometricPrecision" font-family="'Open Sans'" shape-rendering="geometricPrecision" stroke="white" stroke-miterlimit="1.45">
      <text x="206.0586" xml:space="preserve" y="108.0788" clip-path="url(#clipPath2)" stroke="none">High Level Overview Pixelated Dispatcher</text>
    </g>
    <g stroke-linecap="butt" transform="matrix(1,0,0,1,-35,-66)" fill="rgb(255,121,2)" text-rendering="geometricPrecision" shape-rendering="geometricPrecision" stroke="rgb(255,121,2)" stroke-width="4" stroke-miterlimit="1.45">
      <rect fill="none" x="50.73" width="695.54" height="38" y="81.32" clip-path="url(#clipPath2)"/>
      <path fill="none" d="M360 267.5231 L360 316.0692 L406.6973 316.0692" stroke-width="1" clip-path="url(#clipPath2)" stroke="black"/>
      <path fill="black" d="M414.6973 316.0692 L402.6973 311.0692 L405.6973 316.0692 L402.6973 321.0692 Z" stroke-width="1" clip-path="url(#clipPath2)" stroke="none"/>
    </g>
    <g text-rendering="geometricPrecision" stroke-miterlimit="1.45" shape-rendering="geometricPrecision" font-family="'Open Sans'" transform="matrix(1,0,0,1,-35,-66)" stroke-linecap="butt">
      <text x="369.1393" xml:space="preserve" y="308.5535" clip-path="url(#clipPath2)" stroke="none">REST</text>
      <path fill="none" d="M156.5505 232 L316.6844 232" clip-path="url(#clipPath2)"/>
      <path d="M324.6844 232 L312.6844 227 L315.6844 232 L312.6844 237 Z" clip-path="url(#clipPath2)" stroke="none"/>
      <text x="226.182" xml:space="preserve" y="224.4844" clip-path="url(#clipPath2)" stroke="none">https</text>
      <path fill="none" stroke-dasharray="6,2" d="M485.277 318 L520.7054 318 L520.7054 318 L547.5016 318" clip-path="url(#clipPath2)"/>
      <path stroke-dasharray="6,2" d="M551.5016 318 L539.5016 312 L551.5016 318 L539.5016 324 Z" clip-path="url(#clipPath2)" stroke="none"/>
      <path fill="none" stroke-miterlimit="10" d="M551.5016 318 L539.5016 312 L551.5016 318 L539.5016 324 Z" clip-path="url(#clipPath2)" stroke-linecap="square"/>
      <path fill="none" stroke-dasharray="6,2" d="M480 290.4731 L480 280.9599 L539.8815 280.9599" clip-path="url(#clipPath2)"/>
      <path stroke-dasharray="6,2" d="M543.8815 280.9599 L531.8815 274.9599 L543.8815 280.9599 L531.8815 286.9599 Z" clip-path="url(#clipPath2)" stroke="none"/>
      <path fill="none" stroke-miterlimit="10" d="M543.8815 280.9599 L531.8815 274.9599 L543.8815 280.9599 L531.8815 286.9599 Z" clip-path="url(#clipPath2)" stroke-linecap="square"/>
      <path fill="none" d="M395.2856 231.62 L524.1147 231.62" clip-path="url(#clipPath2)"/>
      <path d="M532.1147 231.62 L520.1147 226.62 L523.1147 231.62 L520.1147 236.62 Z" clip-path="url(#clipPath2)" stroke="none"/>
      <text x="449.222" xml:space="preserve" y="224.1044" clip-path="url(#clipPath2)" stroke="none">https</text>
      <path fill="none" stroke-dasharray="6,2" d="M480 290.4821 L480 251.62 L527.0985 251.62" clip-path="url(#clipPath2)"/>
      <path stroke-dasharray="6,2" d="M531.0985 251.62 L519.0985 245.62 L531.0985 251.62 L519.0985 257.62 Z" clip-path="url(#clipPath2)" stroke="none"/>
      <path fill="none" stroke-miterlimit="10" d="M531.0985 251.62 L519.0985 245.62 L531.0985 251.62 L519.0985 257.62 Z" clip-path="url(#clipPath2)" stroke-linecap="square"/>
      <path fill="none" d="M450 345.542 L450 402.0747" clip-path="url(#clipPath2)"/>
      <path d="M450 410.0747 L455 398.0747 L450 401.0747 L445 398.0747 Z" clip-path="url(#clipPath2)" stroke="none"/>
      <path fill="none" d="M633.7849 325.54 L660 325.54 L660 402.0836" clip-path="url(#clipPath2)"/>
      <path d="M660 410.0836 L665 398.0836 L660 401.0836 L655 398.0836 Z" clip-path="url(#clipPath2)" stroke="none"/>
    </g>
  </g>
</svg>
