<svg xmlns="http://www.w3.org/2000/svg" width="116" height="200">
  <path d="m 2.0630648,67.516456 0,63.599994 56.0000002,31.59998 56.000005,-31.59998 0,-63.599994 L 58.063065,35.916454 2.0630648,67.516456 Z m 53.6000002,72.199994 -32.6,-18 0,-38.999994 32.6,18.599994 0,38.4 z m 37,-18 -32.2,18 0,-38.4 32.2,-18.799994 0,39.199994 z m 0,-44.399994 -34.6,20.59998 -35,-20.59998 35,-18.8 34.6,18.8 z" style="opacity:1;fill:#3e3a37;fill-opacity:1" id="path3602" />
  <path d="m 118.06307,67.516456 0,63.599994 56,31.59998 55.99998,-31.59998 0,-63.599994 -55.99998,-31.600002 -56,31.600002 z m 53.6,72.199994 -32.6,-18 0,-38.999994 32.6,18.599994 0,38.4 z m 36.99998,-18 -32.19998,18 0,-38.4 32.19998,-18.799994 0,39.199994 z m 0,-44.399994 -34.59998,20.59998 -35,-20.59998 35,-18.8 34.59998,18.8 z" style="opacity:1;fill:#3e3a37;fill-opacity:1" id="path3604" />
  <path d="m 60.063065,167.51645 0,63.6 56.000005,31.6 56,-31.6 0,-63.6 -56,-31.60002 -56.000005,31.60002 z m 53.600005,72.2 -32.600005,-18 0,-39.00002 32.600005,18.60002 0,38.4 z m 37,-18 -32.2,18 0,-38.4 32.2,-18.8 0,39.2 z m 0,-44.40002 -34.6,20.60002 -35.000005,-20.60002 35.000005,-18.79998 34.6,18.79998 z" style="opacity:1;fill:#3e3a37;fill-opacity:1" id="path3642" />
  <path id="path3808" style="opacity:1;fill:#3e3a37;fill-opacity:1" d="m -113.95879,67.619616 0,63.599994 55.999995,31.6 55.9999998,-31.6 0,-63.599994 -55.9999998,-31.600002 -55.999995,31.600002 z m 53.599995,72.199994 -32.599997,-18 0,-38.999994 32.599997,18.599994 0,38.4 z m 37,-18 -32.2,18 0,-38.4 32.2,-18.799994 0,39.199994 z m 0,-44.399994 -34.6,20.6 -34.999997,-20.6 34.999997,-18.8 34.6,18.8 z" />
  <path id="path3812" style="opacity:1;fill:#3e3a37;fill-opacity:1" d="m -55.958795,167.61961 0,63.6 55.99999981,31.6 56.00000019,-31.6 0,-63.6 -56.00000019,-31.6 -55.99999981,31.6 z m 53.5999998,72.2 -32.5999998,-18 0,-39 32.5999998,18.6 0,38.4 z m 37.0000002,-18 -32.2000002,18 0,-38.4 32.2000002,-18.8 0,39.2 z m 0,-44.4 -34.60000019,20.6 -34.99999981,-20.6 34.99999981,-18.8 34.60000019,18.8 z" />
  <path id="path3814" style="opacity:1;fill:#3e3a37;fill-opacity:1" d="m -55.944199,-32.486458 0,63.599992 55.99999881,31.600002 56.00000119,-31.600002 0,-63.599992 -56.00000119,-31.6 -55.99999881,31.6 z m 53.5999978,72.199992 -32.5999998,-18 0,-38.999992 32.5999998,18.5999916 0,38.4000004 z m 37.0000022,-18 -32.2000022,18 0,-38.4000004 32.2000022,-18.7999916 0,39.199992 z m 0,-44.399992 L 0.05579981,-2.0864584 -34.944201,-22.686458 l 35.00000081,-18.8 34.60000119,18.8 z" />
  <path id="path3816" style="opacity:1;fill:#3e3a37;fill-opacity:1" d="m 60.055801,-32.486458 0,63.599992 55.999999,31.600002 56,-31.600002 0,-63.599992 -56,-31.6 -55.999999,31.6 z m 53.599999,72.199992 -32.599999,-18 0,-38.999992 32.599999,18.5999916 0,38.4000004 z m 37,-18 -32.2,18 0,-38.4000004 32.2,-18.7999916 0,39.199992 z m 0,-44.399992 -34.6,20.5999996 -34.999999,-20.5999996 34.999999,-18.8 34.6,18.8 z" />
</svg>
